<svg width="75" height="81" viewBox="0 0 75 81" fill="none" xmlns="http://www.w3.org/2000/svg">
<path d="M17.8134 75.3225C17.8134 69.6125 17.8134 63.9026 17.8134 58.1926C17.8134 56.7948 18.7555 49.5282 17.5158 48.5364C17.223 48.3022 19.8014 46.7605 20.3266 46.2877C20.8369 45.8285 22.8655 43.9892 23.5013 43.8075C25.4055 43.2635 28.0498 40.2628 29.586 38.8802C31.8868 36.8096 33.5415 34.4223 36.266 33.0601" stroke="white" stroke-width="7" stroke-linecap="round"/>
<path d="M55.93 74.9599C55.93 69.2606 55.93 63.5614 55.93 57.8622C55.93 56.467 54.9454 49.2141 56.241 48.2242C56.547 47.9904 53.8523 46.4515 53.3034 45.9797C52.7701 45.5213 50.65 43.6855 49.9855 43.5041C47.9955 42.9611 45.2319 39.9661 43.6264 38.5861C41.2219 36.5193 39.4926 34.1366 36.6451 32.7769" stroke="white" stroke-width="7" stroke-linecap="round"/>
<path d="M7.09863 46.1556C9.51605 45.887 12.0981 41.5963 14.2416 40.3354C15.1523 39.7997 16.7135 38.44 17.2178 37.5576C17.7257 36.6687 19.8563 35.5143 20.657 34.7136C21.663 33.7077 22.9418 32.7667 24.0631 31.8697C26.2652 30.108 28.3595 28.2016 30.1809 26.3802C31.9494 24.6117 35.3979 23.7586 36.2657 21.1553" stroke="white" stroke-width="7" stroke-linecap="round"/>
<path d="M67.0562 46.5109C64.5356 46.2368 61.8435 41.8593 59.6086 40.573C58.659 40.0264 57.0312 38.6393 56.5054 37.739C55.9758 36.8321 53.7543 35.6544 52.9195 34.8375C51.8707 33.8112 50.5372 32.8512 49.3681 31.936C47.0721 30.1387 44.8885 28.1937 42.9894 26.3355C41.1455 24.5312 37.5499 23.6609 36.6452 21.0049" stroke="white" stroke-width="7" stroke-linecap="round"/>
<path d="M35.7588 4V22.4922" stroke="white" stroke-width="7" stroke-linecap="round"/>
<path d="M29.3267 10.0303H42.5928" stroke="white" stroke-width="7" stroke-linecap="round"/>
<path d="M15.3753 57.3306C14.4775 57.5301 13.5185 58.8458 12.6945 59.3306C11.5889 59.9809 10.7368 61.2337 9.43912 61.5221C7.71887 61.9044 6.26531 64.1835 4.65186 64.9902" stroke="white" stroke-width="7" stroke-linecap="round"/>
<path d="M3.50293 65.7559V76.4793" stroke="white" stroke-width="7" stroke-linecap="round"/>
<path d="M60.189 57.3018C61.0104 57.5062 61.8877 58.8543 62.6415 59.351C63.6529 60.0173 64.4324 61.3009 65.6196 61.5964C67.1933 61.988 68.523 64.3232 69.999 65.1498" stroke="white" stroke-width="7" stroke-linecap="round"/>
<path d="M70.9805 66.1309V76.9219" stroke="white" stroke-width="7" stroke-linecap="round"/>
<path d="M3 77.2944H70.8623" stroke="white" stroke-width="5" stroke-linecap="round"/>
</svg>
