<svg width="656" height="723" viewBox="0 0 656 723" fill="none" xmlns="http://www.w3.org/2000/svg">
<rect x="24" y="18" width="632" height="705" rx="10" fill="black"/>
<path d="M639.494 11.6857C604.163 11.6857 569.515 13.8571 534.18 13.8571C501.05 13.8571 467.91 7.34284 434.415 7.34284C381.899 7.34284 329.383 7.34284 276.867 7.34284C248.845 7.34284 222.258 9.51426 194.232 9.51426C180.974 9.51426 168.789 5.17142 155.267 5.17142C139.344 5.17142 123.42 5.17142 107.496 5.17142C95.0858 5.17142 83.3269 3 70.582 3C58.3921 3 47.1753 5.17142 34.7536 5.17142C30.8504 5.17142 11.0479 4.54165 9.90294 8.54918C7.60618 16.5879 9.78231 28.3876 9.78231 36.7776C9.78231 65.6599 6.07401 93.391 5.43947 121.945C4.75953 152.543 -1.04071 184.424 8.09342 214.11C11.5832 225.452 9.78231 238.721 9.78231 250.542C9.78231 262.186 11.9537 274.148 11.9537 286.249C11.9537 323.926 3.26805 362.327 3.26805 400.37C3.26805 435.174 7.61089 468.307 7.61089 502.909C7.61089 519.315 6.79126 535.976 7.61089 552.369C8.25907 565.333 11.9537 577.612 11.9537 590.972C11.9537 614.134 11.9537 637.295 11.9537 660.457C11.9537 670.751 11.9537 681.046 11.9537 691.34C11.9537 700.885 4.77767 703.045 9.78231 713.054" stroke="black" stroke-width="5" stroke-linecap="round"/>
</svg>
