<svg width="75" height="81" viewBox="0 0 75 81" fill="none" xmlns="http://www.w3.org/2000/svg">
<path d="M17.8133 75.3225C17.8133 69.6125 17.8133 63.9026 17.8133 58.1926C17.8133 56.7948 18.7554 49.5282 17.5156 48.5364C17.2229 48.3022 19.8013 46.7605 20.3265 46.2877C20.8368 45.8285 22.8654 43.9892 23.5012 43.8075C25.4053 43.2635 28.0497 40.2628 29.5859 38.8802C31.8866 36.8096 33.5413 34.4223 36.2659 33.0601" stroke="white" stroke-width="7" stroke-linecap="round"/>
<path d="M55.9301 74.9599C55.9301 69.2606 55.9301 63.5614 55.9301 57.8622C55.9301 56.467 54.9455 49.2141 56.2411 48.2242C56.5471 47.9904 53.8524 46.4515 53.3035 45.9797C52.7702 45.5213 50.6501 43.6855 49.9857 43.5041C47.9956 42.9611 45.232 39.9661 43.6265 38.5861C41.222 36.5193 39.4927 34.1366 36.6453 32.7769" stroke="white" stroke-width="7" stroke-linecap="round"/>
<path d="M7.09882 46.1556C9.51623 45.887 12.0983 41.5963 14.2418 40.3354C15.1525 39.7997 16.7137 38.44 17.218 37.5576C17.7259 36.6687 19.8565 35.5143 20.6572 34.7136C21.6631 33.7077 22.942 32.7667 24.0633 31.8697C26.2654 30.108 28.3597 28.2016 30.1811 26.3802C31.9496 24.6117 35.3981 23.7586 36.2658 21.1553" stroke="white" stroke-width="7" stroke-linecap="round"/>
<path d="M67.0563 46.5109C64.5358 46.2368 61.8436 41.8593 59.6087 40.573C58.6591 40.0264 57.0313 38.6393 56.5055 37.739C55.9759 36.8321 53.7545 35.6544 52.9196 34.8375C51.8708 33.8112 50.5374 32.8512 49.3682 31.936C47.0722 30.1387 44.8886 28.1937 42.9895 26.3355C41.1456 24.5312 37.5501 23.6609 36.6453 21.0049" stroke="white" stroke-width="7" stroke-linecap="round"/>
<path d="M35.7588 4V22.4922" stroke="white" stroke-width="7" stroke-linecap="round"/>
<path d="M29.3268 10.0303H42.5929" stroke="white" stroke-width="7" stroke-linecap="round"/>
<path d="M15.3754 57.3306C14.4776 57.5301 13.5186 58.8458 12.6946 59.3306C11.5891 59.9809 10.7369 61.2337 9.43924 61.5221C7.719 61.9044 6.26543 64.1835 4.65198 64.9902" stroke="white" stroke-width="7" stroke-linecap="round"/>
<path d="M3.50305 65.7559V76.4793" stroke="white" stroke-width="7" stroke-linecap="round"/>
<path d="M60.1893 57.3018C61.0106 57.5062 61.8879 58.8543 62.6418 59.351C63.6531 60.0173 64.4326 61.3009 65.6198 61.5964C67.1935 61.988 68.5233 64.3232 69.9993 65.1498" stroke="white" stroke-width="7" stroke-linecap="round"/>
<path d="M70.9803 66.1309V76.9219" stroke="white" stroke-width="7" stroke-linecap="round"/>
<path d="M3 77.2944H70.8623" stroke="white" stroke-width="5" stroke-linecap="round"/>
</svg>
