<svg width="65" height="43" viewBox="0 0 65 43" fill="none" xmlns="http://www.w3.org/2000/svg">
<path d="M4.8208 4.8208V40.3256" stroke="#FFFEFC" stroke-width="5" stroke-linecap="round"/>
<path d="M3 39.415H62.1746" stroke="#FFFEFC" stroke-width="5" stroke-linecap="round"/>
<path d="M62.1748 7.55176V37.5943" stroke="#FFFEFC" stroke-width="5" stroke-linecap="round"/>
<path d="M4.8208 3H61.2643" stroke="#FFFEFC" stroke-width="5" stroke-linecap="round"/>
<path d="M5.73096 5.73096C10.6428 5.73096 15.6343 11.2867 19.1843 14.1267C21.2732 15.7977 22.8459 17.1005 25.2535 18.4763C26.9352 19.4372 30.369 20.4127 31.2216 22.1178" stroke="#FFFEFC" stroke-width="5" stroke-linecap="round"/>
<path d="M33.0425 22.118C36.3838 22.118 38.4936 19.2202 41.2359 17.7684C43.4025 16.6214 45.4056 15.7989 47.6085 14.6327C51.2953 12.6809 59.4375 8.47424 61.2642 4.8208" stroke="#FFFEFC" stroke-width="5" stroke-linecap="round"/>
<path d="M42.1465 19.3867C45.6952 19.781 60.8058 33.501 62.1748 32.132" stroke="#FFFEFC" stroke-width="5" stroke-linecap="round"/>
<path d="M23.9388 19.3867C20.4349 22.5012 16.8945 24.6103 13.4694 28.0353C11.3169 30.1879 7.4688 33.5392 4.8208 34.8632" stroke="#FFFEFC" stroke-width="5" stroke-linecap="round"/>
</svg>
